HIERARCHY
ROOT Hips
{
	OFFSET -0.001795 -0.223333 0.028219
	CHANNELS 6 Xposition Yposition Zposition Zrotation Yrotation Xrotation 
	JOINT LeftUpLeg
	{
		OFFSET 0.069520 -0.091406 -0.006815
		CHANNELS 3 Zrotation Yrotation Xrotation
		JOINT LeftLeg
		{
			OFFSET 0.034277 -0.375199 -0.004496
			CHANNELS 3 Zrotation Yrotation Xrotation
			JOINT LeftFoot
			{
				OFFSET -0.013596 -0.397961 -0.043693
				CHANNELS 3 Zrotation Yrotation Xrotation
				JOINT LeftToe
				{
					OFFSET 0.026358 -0.055791 0.119288
					CHANNELS 3 Zrotation Yrotation Xrotation
					End Site
					{
						OFFSET 0.000000 0.000000 0.000000
					}
				}
			}
		}
	}
	JOINT RightUpLeg
	{
		OFFSET -0.067670 -0.090522 -0.004320
		CHANNELS 3 Zrotation Yrotation Xrotation
		JOINT RightLeg
		{
			OFFSET -0.038290 -0.382569 -0.008850
			CHANNELS 3 Zrotation Yrotation Xrotation
			JOINT RightFoot
			{
				OFFSET 0.015774 -0.398415 -0.042312
				CHANNELS 3 Zrotation Yrotation Xrotation
				JOINT RightToe
				{
					OFFSET -0.025372 -0.048144 0.123348
					CHANNELS 3 Zrotation Yrotation Xrotation
					End Site
					{
						OFFSET 0.000000 0.000000 0.000000
					}
				}
			}
		}
	}
	JOINT Spine
	{
		OFFSET -0.002533 0.108963 -0.026696
		CHANNELS 3 Zrotation Yrotation Xrotation
		JOINT Spine1
		{
			OFFSET 0.005487 0.135180 0.001092
			CHANNELS 3 Zrotation Yrotation Xrotation
			JOINT Spine2
			{
				OFFSET 0.001457 0.052922 0.025425
				CHANNELS 3 Zrotation Yrotation Xrotation
				JOINT Neck
				{
					OFFSET -0.002778 0.213870 -0.042857
					CHANNELS 3 Zrotation Yrotation Xrotation
					JOINT Head
					{
						OFFSET 0.005152 0.064970 0.051349
						CHANNELS 3 Zrotation Yrotation Xrotation
						End Site
						{
							OFFSET 0.000000 0.000000 0.000000
						}
					}
				}
				JOINT LeftShoulder
				{
					OFFSET 0.078845 0.121749 -0.034090
					CHANNELS 3 Zrotation Yrotation Xrotation
					JOINT LeftArm
					{
						OFFSET 0.090977 0.030469 -0.008868
						CHANNELS 3 Zrotation Yrotation Xrotation
						JOINT LeftForeArm
						{
							OFFSET 0.259612 -0.012772 -0.027456
							CHANNELS 3 Zrotation Yrotation Xrotation
							JOINT LeftHand
							{
								OFFSET 0.249234 0.008986 -0.001171
								CHANNELS 3 Zrotation Yrotation Xrotation
								End Site
								{
									OFFSET 0.000000 0.000000 0.000000
								}
							}
						}
					}
				}
				JOINT RightShoulder
				{
					OFFSET -0.081759 0.118833 -0.038615
					CHANNELS 3 Zrotation Yrotation Xrotation
					JOINT RightArm
					{
						OFFSET -0.096012 0.032551 -0.009143
						CHANNELS 3 Zrotation Yrotation Xrotation
						JOINT RightForeArm
						{
							OFFSET -0.253742 -0.013329 -0.021401
							CHANNELS 3 Zrotation Yrotation Xrotation
							JOINT RightHand
							{
								OFFSET -0.255298 0.007772 -0.005559
								CHANNELS 3 Zrotation Yrotation Xrotation
								End Site
								{
									OFFSET 0.000000 0.000000 0.000000
								}
							}
						}
					}
				}
			}
		}
	}
}
MOTION
Frames: 7
Frame Time: 0.05000000
0.000000 0.923942 0.000000 -0.566749 -6.403534 -5.360003 4.403904 -0.854884 -21.550240 -5.297212 1.387871 23.282794 7.417621 15.854941 13.966890 0.000000 0.000000 0.000000 -5.226567 1.081459 -15.642392 12.014617 -3.294813 61.867093 -7.376869 -18.336834 3.537941 0.000000 0.000000 0.000000 -5.144705 0.067380 9.597012 4.875162 -1.073597 -19.451865 3.422232 4.358015 25.466602 1.941851 0.602535 -26.569761 0.000000 0.000000 0.000000 -16.631651 10.614656 -6.528887 -50.696019 19.252064 -15.451730 -84.099251 -51.050505 51.689109 0.000000 0.000000 0.000000 9.759331 4.010600 1.284617 57.495502 9.527751 -3.295018 63.638935 74.722271 56.621539 0.000000 0.000000 0.000000 
0.005262 0.927292 -0.079712 -1.696277 -7.679318 -3.525814 7.726310 -0.043514 -28.018309 -5.739873 1.377667 18.918790 4.657147 12.128137 19.356966 0.000000 0.000000 0.000000 -2.229620 1.297467 -14.199261 12.921524 -3.629947 65.536445 -4.695300 -14.828745 17.335938 0.000000 0.000000 0.000000 -5.450122 0.080759 6.781819 5.224142 -1.299751 -17.814573 5.752550 7.797674 24.232154 3.955450 -0.236746 -24.576040 0.000000 0.000000 0.000000 -12.914745 9.649540 -5.853581 -50.095710 22.748997 -16.451370 -95.519106 -44.778452 52.349724 0.000000 0.000000 0.000000 6.240338 2.749620 0.998113 60.149520 10.220585 -2.392358 102.577987 70.879973 91.455425 0.000000 0.000000 0.000000 
0.009017 0.923253 -0.167155 0.184581 -7.104123 -3.392457 8.715014 0.258399 -31.925892 -7.987302 1.833443 15.999957 4.072912 12.201775 26.020605 0.000000 0.000000 0.000000 0.122171 1.160504 -11.171109 9.989612 -1.591162 60.358603 -3.048387 -10.849594 10.777040 0.000000 0.000000 0.000000 -4.126089 -0.008222 4.202024 4.403100 -1.305052 -14.040232 2.531634 8.555107 20.545011 0.747528 1.577450 -21.110975 0.000000 0.000000 0.000000 -11.729710 11.283272 -6.572368 -48.451799 22.861131 -15.710337 -98.511953 -46.889337 56.224683 0.000000 0.000000 0.000000 5.364307 5.754202 2.262832 59.967132 13.005805 -0.507507 96.829232 73.986097 89.033952 0.000000 0.000000 0.000000 
0.012802 0.897206 -0.262062 2.178891 -6.883687 -4.402230 9.806249 0.694005 -34.569440 -10.813012 3.209638 22.458428 4.807924 12.194977 17.324031 0.000000 0.000000 0.000000 0.949294 1.393791 -12.625539 7.486431 0.216613 60.943774 -4.892492 -12.963972 3.520159 0.000000 0.000000 0.000000 -5.570342 0.075630 6.740333 4.816570 -1.277176 -16.572466 1.967346 8.025916 21.601678 0.507528 1.754585 -22.614304 0.000000 0.000000 0.000000 -15.942133 11.900341 -7.794598 -45.243809 19.896617 -13.511746 -110.280760 -50.027094 71.399690 0.000000 0.000000 0.000000 7.330528 5.947603 2.404094 56.514478 13.795472 -0.608513 120.435357 70.097354 110.896845 0.000000 0.000000 0.000000 
0.016850 0.868530 -0.361164 2.831638 -6.489348 -5.514836 11.240852 1.227085 -36.006986 -14.580646 6.296063 35.300438 8.510717 17.151398 4.024950 0.000000 0.000000 0.000000 2.234768 2.047551 -16.520044 8.915205 -0.928057 61.666234 -6.373653 -14.873136 -4.672080 0.000000 0.000000 0.000000 -6.292185 0.167347 9.391525 6.356905 -1.688669 -17.414883 1.148533 8.000914 20.113294 -1.350821 2.827539 -21.050148 0.000000 0.000000 0.000000 -16.963499 10.160577 -7.173654 -47.395254 15.274495 -12.478905 -118.400984 -51.153867 81.892074 0.000000 0.000000 0.000000 7.741626 5.480970 2.215773 55.459531 12.867530 -0.981333 121.973428 66.800357 109.124634 0.000000 0.000000 0.000000 
0.019694 0.861776 -0.461054 3.244901 -5.523691 -6.164943 12.258925 1.382522 -34.737269 -16.469665 9.761012 50.361996 8.662961 17.152885 -5.125492 0.000000 0.000000 0.000000 2.991804 2.815005 -21.064196 9.735021 -1.935429 60.257540 -7.414677 -16.971325 -10.156608 0.000000 0.000000 0.000000 -6.409385 0.214374 11.520842 5.987906 -1.595792 -17.110279 -0.040579 4.307074 18.355683 -0.627242 1.961590 -22.042263 0.000000 0.000000 0.000000 -17.575436 8.859503 -6.017042 -50.338554 7.557662 -10.280495 -128.063475 -54.963009 100.943523 0.000000 0.000000 0.000000 8.620529 5.980184 2.092624 57.668332 10.862398 -1.947618 113.663499 62.955279 92.763773 0.000000 0.000000 0.000000 
0.020785 0.887638 -0.566624 3.032008 -3.818369 -6.167421 10.505833 0.411039 -28.792653 -14.095776 8.894737 56.990722 6.978794 13.988736 -1.811386 0.000000 0.000000 0.000000 3.465945 3.327805 -24.176948 7.264897 -0.962682 50.513790 -7.331021 -17.056817 -7.446117 0.000000 0.000000 0.000000 -6.656183 0.199862 11.250291 6.797528 -1.835553 -16.818176 -1.841472 0.104591 18.785341 0.018886 1.167555 -23.770519 0.000000 0.000000 0.000000 -16.453528 7.825549 -4.666630 -51.826847 -0.439568 -7.443690 -141.269934 -54.561623 122.304618 0.000000 0.000000 0.000000 8.619160 4.218439 0.997901 59.233219 7.417938 -3.903238 110.221287 54.655977 76.939694 0.000000 0.000000 0.000000 
